<svg xmlns="http://www.w3.org/2000/svg" width="84" height="84" viewBox="0 0 84 84">
  <g id="img14" transform="translate(-1103.059 -7491)">
    <rect id="Rectangle_461168" data-name="Rectangle 461168" width="84" height="84" rx="10" transform="translate(1103.059 7491)" fill="#c2afff"/>
    <path id="Path_1041086" data-name="Path 1041086" d="M71.991,9.55a.975.975,0,0,1-.7.326h-.028a.975.975,0,0,1-.69-.286L68.53,7.548a.976.976,0,0,1,1.38-1.38L71.222,7.48,73.94,4.433a.976.976,0,1,1,1.457,1.3Zm15.435,4.834-.826.926a.977.977,0,0,0,1.458,1.3l.677-.758.975,1.094a.977.977,0,0,0,1.458-1.3l-1.125-1.262,1.125-1.26a.977.977,0,0,0-1.458-1.3l-.975,1.093-.975-1.093a.977.977,0,0,0-1.458,1.3ZM62.1,20.78a.977.977,0,0,0-1.379.078L58,23.905,56.69,22.594a.976.976,0,0,0-1.38,1.38l2.042,2.042a.977.977,0,0,0,.69.286h.028a.977.977,0,0,0,.7-.326l3.406-3.819A.974.974,0,0,0,62.1,20.78ZM96.641,31.156a7,7,0,0,1-8.763,6.778c-3.237,3.073-7.347,4.936-11.974,6.8a45.177,45.177,0,0,0,3.355,16.439.976.976,0,0,1-.9,1.341H66.265a.976.976,0,0,1-.973-.9A60.81,60.81,0,0,1,65.6,48.492a33.894,33.894,0,0,1-9.132-5.239,7,7,0,1,1,2.672-5.5q0,.357-.035.7a36.647,36.647,0,0,0,7.746,3.559c.546-2.217,1.167-4.28,1.812-6.344a22.042,22.042,0,0,1-7.52-5.69,7.012,7.012,0,1,1,3.549-2.914,31.687,31.687,0,0,0,5.685,3.051c1.573-5.452,2.369-10.214,1.638-16.135h-.068a7.013,7.013,0,1,1,4.086-1.323A19.956,19.956,0,0,1,77.968,20.5,31.775,31.775,0,0,0,82.6,17.74a7,7,0,1,1,3.165,2.977,21.861,21.861,0,0,1-8.076,6.236c-.175,1.531-.4,3.086-.64,4.72-.277,1.9-.562,3.855-.779,5.888a37.8,37.8,0,0,0,7.2-3.118,7,7,0,1,1,13.178-3.288ZM83.687,14.383a5.047,5.047,0,1,0,5.047-5.047A5.053,5.053,0,0,0,83.687,14.383ZM71.945,12.04A5.047,5.047,0,1,0,66.9,6.992,5.053,5.053,0,0,0,71.945,12.04ZM58.725,28.466a5.047,5.047,0,1,0-5.047-5.047A5.053,5.053,0,0,0,58.725,28.466ZM52.14,42.8a5.047,5.047,0,1,0-5.047-5.047A5.053,5.053,0,0,0,52.14,42.8ZM85.914,37.08a7.08,7.08,0,0,1-1.292-1.049,40.8,40.8,0,0,1-9.2,3.831.992.992,0,0,1-.272.039.977.977,0,0,1-.972-1.061c.228-2.613.586-5.071.933-7.446.264-1.809.513-3.516.689-5.187a.975.975,0,0,1,.553-.779,20.033,20.033,0,0,0,7.771-5.781c-.125-.109-.245-.221-.361-.338A33.589,33.589,0,0,1,77.417,22.9a.977.977,0,0,1-1.363-.9A18.9,18.9,0,0,0,74.3,13.583c-.118.043-.238.081-.359.117.913,7.407-.545,13.166-2,18.007a.978.978,0,0,1-.935.7.962.962,0,0,1-.346-.063,33.934,33.934,0,0,1-7.222-3.754q-.264.24-.55.453a21.1,21.1,0,0,0,7.371,5.243.977.977,0,0,1,.514,1.176c-.824,2.612-1.617,5.193-2.271,8.033a.975.975,0,0,1-1.24.713A39.635,39.635,0,0,1,58.6,40.439a6.949,6.949,0,0,1-.784,1.4,34.091,34.091,0,0,0,9.225,5.141.973.973,0,0,1,.591,1.045,58.029,58.029,0,0,0-.467,12.536h9.758a46.881,46.881,0,0,1-2.983-16.483.977.977,0,0,1,.614-.907c4.387-1.754,8.3-3.446,11.356-6.091Zm8.774-5.924a5.047,5.047,0,1,0-5.047,5.051,5.053,5.053,0,0,0,5.047-5.051ZM91.995,28.52a.977.977,0,0,0-1.379.078l-.975,1.093L88.667,28.6a.976.976,0,0,0-1.457,1.3l1.124,1.259L87.21,32.417a.976.976,0,0,0,1.457,1.3l.975-1.093.975,1.093a.976.976,0,1,0,1.457-1.3l-1.124-1.259L92.073,29.9a.977.977,0,0,0-.078-1.379Zm-36.48,6.6a.976.976,0,0,0-1.379.079l-2.717,3.049-1.312-1.313a.976.976,0,1,0-1.381,1.379l2.042,2.046a.979.979,0,0,0,.691.287h.028a.975.975,0,0,0,.7-.326L55.594,36.5a.98.98,0,0,0-.079-1.38Z" transform="translate(1074.168 7501.748)" fill="#443d59"/>
  </g>
</svg>
