<svg xmlns="http://www.w3.org/2000/svg" width="152" height="152" viewBox="0 0 152 152">
  <g id="img34" transform="translate(-1103.059 -7491)">
    <rect id="Rectangle_461168" data-name="Rectangle 461168" width="152" height="152" rx="10" transform="translate(1103.059 7491)" fill="#c2afff"/>
    <g id="Group_1194419" data-name="Group 1194419" transform="translate(1125.167 7516.321)">
      <path id="Path_1040458" data-name="Path 1040458" d="M79.449,42.6C86.955,27.341,92.4,10.5,85.925,5.856S65.249,11.788,53.208,23.812c-1.6-2.225-4.832-4.631-11.308-4.158a1.357,1.357,0,0,0-.288,2.653.9.9,0,0,1,.514.62,6.365,6.365,0,0,1-.944,5c-.4.6-.8,1.224-1.195,1.861A14.675,14.675,0,0,0,31.7,28.752a1.357,1.357,0,0,0-.16,2.665,2.51,2.51,0,0,1,1.62,1.5,3.145,3.145,0,0,1-.265,2.887c-9.651,15.64-16.164,37.718-9.755,48.707l-3.9,5.446a1.358,1.358,0,0,0,.31,1.893l6.294,4.512a1.354,1.354,0,0,0,.791.254,1.422,1.422,0,0,0,.221-.018,1.358,1.358,0,0,0,.881-.549l3.9-5.449a16.35,16.35,0,0,0,3.17.3c11.949,0,28.453-11.443,39.8-25.18a3.149,3.149,0,0,1,2.662-1.2,2.523,2.523,0,0,1,1.95,1.054,1.357,1.357,0,0,0,2.471-1.008,14.686,14.686,0,0,0-3.648-7.524c.472-.578.93-1.153,1.368-1.716a6.441,6.441,0,0,1,4.386-2.51h.053c.562.012.709.22.757.288a1.357,1.357,0,0,0,2.42-1.126C85.384,45.688,82.067,43.4,79.449,42.6ZM53.831,27a1.372,1.372,0,0,0,.115-.118c.43-.44.861-.87,1.29-1.3l2.312,1.657a1.358,1.358,0,0,0,1.581-2.206L57.2,23.654q1.821-1.751,3.6-3.343l1.126.806a1.357,1.357,0,1,0,1.581-2.206l-.612-.439c9.8-8.393,18.172-12.756,21.441-10.414S86.17,19.733,81.38,31.712l-.609-.436a1.358,1.358,0,1,0-1.581,2.206l1.123.8q-.937,2.2-2.006,4.487L76.384,37.4A1.358,1.358,0,0,0,74.8,39.6l2.312,1.656c-.264.543-.531,1.079-.806,1.623a1.3,1.3,0,0,0-.1.2q-.64,1.261-1.318,2.538a1.369,1.369,0,0,0-.209-.185L72,43.518a1.358,1.358,0,0,0-1.579,2.2L73.1,47.642a1.318,1.318,0,0,0,.582.222q-1.361,2.487-2.842,5a1.352,1.352,0,0,0-.543-1.309l-2.682-1.922a1.359,1.359,0,1,0-1.583,2.21l2.682,1.922a1.34,1.34,0,0,0,1.6-.026l-.392.654a12.292,12.292,0,0,0-2.139.465c-.775.24-2.12.691-3.883,1.385l-.678-.485a1.354,1.354,0,0,0-2.04,1.622c-1.71.754-3.644,1.682-5.743,2.809a1.354,1.354,0,0,0-.565-1.149L52.2,57.118a1.357,1.357,0,0,0-1.581,2.206L53.3,61.245c.041.029.088.041.13.065-1.44.826-2.935,1.741-4.467,2.751l-1.147-.819a1.355,1.355,0,1,0-1.582,2.2l.348.25a80.482,80.482,0,0,0-8.554,7A80.67,80.67,0,0,0,41.9,62.351l.357.257a1.357,1.357,0,1,0,1.582-2.2l-1.163-.833c.465-1.778.845-3.483,1.163-5.113a1.229,1.229,0,0,0,.121.107l2.682,1.921a1.359,1.359,0,0,0,1.587-2.206l-2.682-1.922a1.358,1.358,0,0,0-1.291-.155c.4-2.352.661-4.5.826-6.364.03,0,.06.014.091.014a1.357,1.357,0,0,0,.79-2.458l-.677-.485c.095-1.929.086-3.353.066-4.121a12.339,12.339,0,0,0-.247-2.166l.493-.582a1.355,1.355,0,0,0,.494,1.522l2.682,1.922a1.358,1.358,0,0,0,1.581-2.206l-2.682-1.921a1.351,1.351,0,0,0-1.412-.1q1.9-2.21,3.813-4.291a1.341,1.341,0,0,0,.4.472l2.682,1.921a1.357,1.357,0,0,0,1.581-2.206L52.06,29.235a1.367,1.367,0,0,0-.242-.138C52.487,28.384,53.161,27.683,53.831,27ZM43.442,29.426a9.173,9.173,0,0,0,1.348-7.071c3.049.248,5.246,1.414,6.472,3.43-2.568,2.648-5.008,5.325-7.218,7.9a9.186,9.186,0,0,0-1.823-2.351c.4-.649.807-1.29,1.22-1.9ZM35.21,37.212a5.907,5.907,0,0,0,.446-5.342c-.078-.178-.155-.35-.247-.516a8.209,8.209,0,0,1,4.818,1.814,7.762,7.762,0,0,1,2.415,5.688,75.706,75.706,0,0,1-2.8,20.871,1.3,1.3,0,0,0-.038.14,76.039,76.039,0,0,1-9.372,21.111c-.6.762-1.191,1.551-1.774,2.351.041-9.846,3.584-21.271,6.032-29.15,1.448-4.666,2.5-8.036,2.545-9.957a1.356,1.356,0,0,0-1.318-1.392h-.036a1.357,1.357,0,0,0-1.355,1.318c-.04,1.546-1.145,5.1-2.425,9.226C29.553,61.565,25.86,73.493,25.954,83.9c-.021-.03-.045-.058-.065-.088C20.182,75.4,24.274,54.938,35.21,37.212ZM26.319,93.368,22.23,90.436l2.591-3.616a12.238,12.238,0,0,0,1.826,1.647l.011.009c.015.01.028.022.042.033h0a12.045,12.045,0,0,0,2.206,1.24ZM77.451,61.821a5.908,5.908,0,0,0-4.928,2.156C60.256,78.835,41.858,90.806,31.294,87.746c9.888-3.256,20-10.593,26.946-15.639,3.489-2.537,6.5-4.729,7.953-5.262a1.357,1.357,0,1,0-.94-2.546c-1.8.666-4.657,2.741-8.606,5.612-6.736,4.9-16.529,12-25.92,15.168A78.159,78.159,0,0,1,64.245,59.029c.033-.014.068-.024.1-.041,1.949-.786,3.431-1.283,4.247-1.537a7.761,7.761,0,0,1,6.169.461,8.223,8.223,0,0,1,3.268,3.98,5.685,5.685,0,0,0-.578-.071Zm-.193-8.153c-.447.579-.921,1.168-1.406,1.759a9.2,9.2,0,0,0-2.812-.97c1.726-2.923,3.478-6.088,5.161-9.377,2.3.511,4.109,2.219,5.328,5.035a9.188,9.188,0,0,0-6.269,3.553Z" fill="#443d59"/>
      <path id="Path_1040459" data-name="Path 1040459" d="M85,20.925l2.682,1.921a1.357,1.357,0,0,0,1.581-2.206l-2.682-1.922A1.358,1.358,0,0,0,85,20.925Z" transform="translate(-14.714 -3.089)" fill="#443d59"/>
      <path id="Path_1040460" data-name="Path 1040460" d="M93.563,27.062l2.682,1.922a1.358,1.358,0,0,0,1.581-2.206l-2.682-1.921a1.357,1.357,0,1,0-1.581,2.206Z" transform="translate(-16.633 -4.464)" fill="#443d59"/>
      <path id="Path_1040461" data-name="Path 1040461" d="M79.336,28.815l2.682,1.922A1.358,1.358,0,1,0,83.6,28.53l-2.682-1.921a1.357,1.357,0,1,0-1.582,2.206Z" transform="translate(-13.436 -4.858)" fill="#443d59"/>
      <path id="Path_1040462" data-name="Path 1040462" d="M92.175,34.675l-2.682-1.922a1.358,1.358,0,0,0-1.581,2.206l2.682,1.921a1.357,1.357,0,1,0,1.581-2.206Z" transform="translate(-15.369 -6.242)" fill="#443d59"/>
      <path id="Path_1040463" data-name="Path 1040463" d="M94.928,16.09l2.682,1.921a1.358,1.358,0,0,0,1.581-2.206l-2.682-1.921a1.358,1.358,0,1,0-1.581,2.206Z" transform="translate(-16.934 -1.994)" fill="#443d59"/>
      <path id="Path_1040464" data-name="Path 1040464" d="M73.677,36.711l2.682,1.919a1.357,1.357,0,1,0,1.579-2.206L75.256,34.5a1.357,1.357,0,1,0-1.579,2.206Z" transform="translate(-12.164 -6.632)" fill="#443d59"/>
      <path id="Path_1040465" data-name="Path 1040465" d="M86.51,42.569l-2.682-1.921a1.357,1.357,0,1,0-1.581,2.206l2.682,1.922a1.358,1.358,0,0,0,1.581-2.206Z" transform="translate(-14.09 -8.013)" fill="#443d59"/>
      <path id="Path_1040466" data-name="Path 1040466" d="M68.012,44.6l2.682,1.923a1.357,1.357,0,1,0,1.579-2.206L69.591,42.4A1.357,1.357,0,1,0,68.012,44.6Z" transform="translate(-10.885 -8.402)" fill="#443d59"/>
      <path id="Path_1040467" data-name="Path 1040467" d="M80.861,50.475l-2.682-1.922A1.358,1.358,0,0,0,76.6,50.759L79.28,52.68a1.357,1.357,0,1,0,1.581-2.206Z" transform="translate(-12.826 -9.793)" fill="#443d59"/>
      <path id="Path_1040468" data-name="Path 1040468" d="M62.362,52.5l2.682,1.92a1.357,1.357,0,1,0,1.579-2.206L63.941,50.3A1.357,1.357,0,1,0,62.362,52.5Z" transform="translate(-9.621 -10.181)" fill="#443d59"/>
      <path id="Path_1040469" data-name="Path 1040469" d="M75.2,58.359l-2.682-1.921a1.357,1.357,0,1,0-1.582,2.206l2.682,1.922A1.358,1.358,0,0,0,75.2,58.359Z" transform="translate(-11.548 -11.561)" fill="#443d59"/>
      <path id="Path_1040470" data-name="Path 1040470" d="M60.966,60.113l-2.682-1.921A1.357,1.357,0,1,0,56.7,60.4l2.682,1.922a1.358,1.358,0,1,0,1.581-2.206Z" transform="translate(-8.35 -11.955)" fill="#443d59"/>
      <path id="Path_1040471" data-name="Path 1040471" d="M69.547,66.261l-2.682-1.922a1.358,1.358,0,0,0-1.581,2.206l2.682,1.921a1.357,1.357,0,0,0,1.581-2.206Z" transform="translate(-10.284 -13.34)" fill="#443d59"/>
    </g>
  </g>
</svg>
