<svg xmlns="http://www.w3.org/2000/svg" width="151.086" height="151.086" viewBox="0 0 151.086 151.086">
  <g id="img27" transform="translate(-1103.059 -7491)">
    <rect id="Rectangle_461168" data-name="Rectangle 461168" width="151.086" height="151.086" rx="10" transform="translate(1103.059 7491)" fill="#c2afff"/>
    <g id="Group_1194414" data-name="Group 1194414" transform="translate(1141.881 7509.642)">
      <g id="Group_1194413" data-name="Group 1194413" transform="translate(0 25.8)">
        <path id="Path_1040441" data-name="Path 1040441" d="M72.483,57.25a3.164,3.164,0,0,0,.958-2.265V48.8a3.02,3.02,0,0,0-.958-2.265,3.8,3.8,0,0,0-2.352-.958h-6.97c0-.174.087-.348.087-.523V38.868A3.02,3.02,0,0,0,62.29,36.6a3.163,3.163,0,0,0-2.265-.958h-6.97c0-.174.087-.348.087-.523v-6.1a3.02,3.02,0,0,0-.958-2.265,3.163,3.163,0,0,0-2.265-.958H33.541a2.812,2.812,0,0,0-1.83.7,3.368,3.368,0,0,0-1.83-.7H13.329a3.02,3.02,0,0,0-2.265.958,3.163,3.163,0,0,0-.958,2.265v6.185c0,.174.087.348.087.523H3.223a3.094,3.094,0,0,0-2.178.871l-.087.087A3.163,3.163,0,0,0,0,38.955V45.14a3.02,3.02,0,0,0,.958,2.265,3.163,3.163,0,0,0,2.265.958h6.97c0,.174-.087.348-.087.523v6.185c0,.174.087.348.087.523H3.223a3.094,3.094,0,0,0-2.178.871l-.087.087A3.163,3.163,0,0,0,0,58.818V65a3.02,3.02,0,0,0,.958,2.265,3.163,3.163,0,0,0,2.265.958h6.97c0,.174-.087.348-.087.523v6.185c0,.174.087.348.087.523H3.223a3.094,3.094,0,0,0-2.178.871l-.087.087A3.164,3.164,0,0,0,0,78.681v6.1a3.02,3.02,0,0,0,.958,2.265A3.163,3.163,0,0,0,3.223,88H19.689a3.238,3.238,0,0,0,1.917-.7,3.368,3.368,0,0,0,1.83.7H39.9a3.238,3.238,0,0,0,1.917-.7,3.368,3.368,0,0,0,1.83.7H60.112a3.02,3.02,0,0,0,2.265-.958,3.163,3.163,0,0,0,.958-2.265V78.594c0-.174-.087-.348-.087-.523h6.97a3.02,3.02,0,0,0,2.265-.958,3.163,3.163,0,0,0,.958-2.265V68.663a3.02,3.02,0,0,0-.958-2.265,3.163,3.163,0,0,0-2.265-.958h-6.97c0-.174.087-.348.087-.523V58.731c0-.174-.087-.348-.087-.523h6.97A3.02,3.02,0,0,0,72.483,57.25ZM60.025,38.432a.616.616,0,0,1,.523.523V45.14a.453.453,0,0,1-.174.348c-.087.087-.174.087-.348.087H43.56a.616.616,0,0,1-.523-.523V38.868a.453.453,0,0,1,.174-.348c.087-.087.174-.087.348-.087H60.025Zm-9.583,16.64a.616.616,0,0,1-.523.523H33.454a.616.616,0,0,1-.523-.523V48.887a.616.616,0,0,1,.523-.523H49.919a.616.616,0,0,1,.523.523Zm3.223,3.311h6.36c.174-.087.261,0,.348.087a.453.453,0,0,1,.174.348V65a.616.616,0,0,1-.523.523H43.56A.616.616,0,0,1,43.037,65V58.818a.453.453,0,0,1,.174-.348c.087-.087.174-.087.348-.087H53.666Zm-30.84.348A.453.453,0,0,1,23,58.383c.087-.087.174-.087.348-.087H39.814a.616.616,0,0,1,.523.523v6.1a.616.616,0,0,1-.523.523H23.348a.616.616,0,0,1-.523-.523V58.731Zm-3.136-3.223h-6.36a.616.616,0,0,1-.523-.523V48.8a.616.616,0,0,1,.523-.523H29.795a.616.616,0,0,1,.523.523v6.185a.616.616,0,0,1-.523.523H19.689ZM33.018,29.023a.66.66,0,0,1,.174-.348.453.453,0,0,1,.348-.174H50.007a.616.616,0,0,1,.523.523v6.185a.616.616,0,0,1-.523.523H33.541a.616.616,0,0,1-.523-.523V29.023Zm.523,9.5H39.9a.616.616,0,0,1,.523.523v6.185a.453.453,0,0,1-.174.348h-16.9a.32.32,0,0,1-.261-.087.453.453,0,0,1-.174-.348V38.955a.453.453,0,0,1,.174-.348c.087-.087.174-.087.348-.087H33.541Zm-20.734-9.5a.616.616,0,0,1,.523-.523H29.795a.616.616,0,0,1,.523.523v6.185a.616.616,0,0,1-.523.523H13.329a.616.616,0,0,1-.523-.523V29.023ZM3.223,45.576c-.174,0-.261,0-.348-.087A.453.453,0,0,1,2.7,45.14V38.955a.453.453,0,0,1,.174-.348c.087-.087.174-.087.348-.087H19.689a.616.616,0,0,1,.523.523v6.185a.453.453,0,0,1-.174.348H3.223Zm0,19.863a.453.453,0,0,1-.348-.174.453.453,0,0,1-.174-.348V58.731a.453.453,0,0,1,.174-.348c.087-.087.174-.087.348-.087H19.689a.453.453,0,0,1,.348.174.32.32,0,0,1,.087.261v6.185a.616.616,0,0,1-.523.523H3.223ZM20.212,84.78c-.087.087-.087.261-.174.348a.453.453,0,0,1-.348.174H3.223a.453.453,0,0,1-.348-.174A.66.66,0,0,1,2.7,84.78V78.594a.453.453,0,0,1,.174-.348c.087-.087.174-.087.348-.087H19.689a.616.616,0,0,1,.523.523Zm-.523-9.322h-6.36a1.2,1.2,0,0,1-.348-.261.453.453,0,0,1-.174-.348V68.663a.453.453,0,0,1,.174-.348c.087-.087.174-.087.348-.087H29.795a.616.616,0,0,1,.523.523v6.185a.616.616,0,0,1-.523.523H19.689ZM40.423,84.78c-.087.087-.174.261-.261.348a.453.453,0,0,1-.348.174H23.435a.616.616,0,0,1-.523-.523V78.594a.453.453,0,0,1,.174-.348c.087-.087.174-.087.348-.087H39.9a.616.616,0,0,1,.523.523Zm-.61-9.409h-6.36a.616.616,0,0,1-.523-.523V68.663a.616.616,0,0,1,.523-.523H49.919c.174.087.261.087.348.174a.453.453,0,0,1,.174.348v6.185a.616.616,0,0,1-.523.523H39.814ZM60.548,84.78a.616.616,0,0,1-.523.523H43.56a.616.616,0,0,1-.523-.523V78.594a.453.453,0,0,1,.174-.348c.087-.087.174-.087.348-.087H60.025c.174-.087.261,0,.348.087a.453.453,0,0,1,.174.348Zm9.67-16.64c.087.087.174.087.261.174a.453.453,0,0,1,.174.348v6.185a.616.616,0,0,1-.523.523H53.666a.453.453,0,0,1-.348-.174.524.524,0,0,1-.087-.348V68.663a.616.616,0,0,1,.523-.523H70.218ZM60.025,55.595h-6.36a.453.453,0,0,1-.348-.174.659.659,0,0,1-.087-.348V48.887a.616.616,0,0,1,.523-.523H70.218a.616.616,0,0,1,.523.523v6.185h-.087a.616.616,0,0,1-.523.523Z" transform="translate(0 -25.8)" fill="#443d59"/>
      </g>
    </g>
  </g>
</svg>
